<svg width="177" height="34" viewBox="0 0 177 34" fill="none" xmlns="http://www.w3.org/2000/svg">
<g clip-path="url(#clip0_1_28)">
<path fill-rule="evenodd" clip-rule="evenodd" d="M10.0351 2.37766C8.38405 2.37766 6.80071 3.03351 5.63328 4.20094L0 9.83418V12.4127C0 14.2345 0.782517 15.8734 2.02976 17.0118C0.782517 18.1502 0 19.7891 0 21.6109V24.1894L5.63328 29.8227C6.80071 30.9901 8.38405 31.6459 10.0351 31.6459C11.8568 31.6459 13.4958 30.8635 14.6341 29.6162C15.7725 30.8635 17.4115 31.6459 19.2332 31.6459C20.8842 31.6459 22.4676 30.9901 23.635 29.8227L29.2683 24.1894V21.6109C29.2683 19.7891 28.4858 18.1502 27.2385 17.0118C28.4858 15.8734 29.2683 14.2345 29.2683 12.4127V9.83418L23.635 4.20094C22.4676 3.03351 20.8842 2.37766 19.2332 2.37766C17.4115 2.37766 15.7725 3.16017 14.6341 4.40742C13.4958 3.16017 11.8568 2.37766 10.0351 2.37766ZM18.8479 17.0118C18.7777 16.9478 18.7089 16.882 18.6414 16.8145L14.6341 12.8073L10.6269 16.8145C10.5594 16.882 10.4906 16.9478 10.4204 17.0118C10.4906 17.0758 10.5594 17.1416 10.6269 17.2091L14.6341 21.2163L18.6414 17.2091C18.7089 17.1416 18.7777 17.0758 18.8479 17.0118ZM16.2601 24.1894V25.4209C16.2601 27.0628 17.5913 28.3939 19.2332 28.3939C20.0217 28.3939 20.7779 28.0807 21.3355 27.5231L26.0163 22.8423V21.6109C26.0163 19.9689 24.6852 18.6378 23.0432 18.6378C22.2547 18.6378 21.4985 18.951 20.941 19.5086L16.2601 24.1894ZM13.0081 24.1894L8.32734 19.5086C7.76978 18.951 7.01359 18.6378 6.22509 18.6378C4.58311 18.6378 3.25203 19.9689 3.25203 21.6109V22.8423L7.93281 27.5231C8.49037 28.0807 9.24658 28.3939 10.0351 28.3939C11.677 28.3939 13.0081 27.0628 13.0081 25.4209V24.1894ZM13.0081 8.60274V9.83418L8.32734 14.515C7.76978 15.0725 7.01359 15.3858 6.22509 15.3858C4.58311 15.3858 3.25203 14.0547 3.25203 12.4127V11.1813L7.93281 6.50047C8.49037 5.94292 9.24658 5.62969 10.0351 5.62969C11.677 5.62969 13.0081 6.96077 13.0081 8.60274ZM20.941 14.515L16.2601 9.83418V8.60274C16.2601 6.96077 17.5913 5.62969 19.2332 5.62969C20.0217 5.62969 20.7779 5.94292 21.3355 6.50047L26.0163 11.1813V12.4127C26.0163 14.0547 24.6852 15.3858 23.0432 15.3858C22.2547 15.3858 21.4985 15.0725 20.941 14.515Z" fill="white"/>
</g>
<path d="M42.5883 26H38.3883V7.24H48.1883C52.5283 7.24 55.3283 9.704 55.3283 14.016C55.3283 18.328 52.5283 20.82 48.1883 20.82H42.5883V26ZM47.7403 11.02H42.5883V17.04H47.7403C50.0643 17.04 51.1563 16.368 51.1563 14.016C51.1563 11.72 50.0643 11.02 47.7403 11.02ZM61.13 26.28C58.106 26.28 56.286 24.88 56.286 22.528C56.286 20.456 57.826 19.168 60.822 18.86L66.842 18.244V17.712C66.842 15.892 66.03 15.388 63.79 15.388C61.662 15.388 60.794 15.948 60.794 17.544V17.656H56.566V17.572C56.566 14.1 59.478 11.692 64.098 11.692C68.774 11.692 70.986 14.1 70.986 17.768V26H67.066V22.78H66.842C66.198 24.964 64.238 26.28 61.13 26.28ZM60.514 22.248C60.514 23.004 61.102 23.312 62.334 23.312C65.19 23.312 66.73 22.64 66.842 20.652L61.97 21.212C60.962 21.296 60.514 21.576 60.514 22.248ZM80.1989 26.28C75.4669 26.28 72.8629 24.432 72.8629 21.184V21.1H77.0629V21.352C77.0629 22.612 77.8469 22.948 80.2269 22.948C82.4669 22.948 82.9989 22.584 82.9989 21.744C82.9989 20.96 82.5789 20.736 80.9269 20.512L76.9789 20.036C74.1789 19.728 72.6109 18.468 72.6109 16.116C72.6109 13.652 74.7109 11.692 79.5269 11.692C84.1189 11.692 86.7229 13.428 86.7229 16.844V16.928H82.5229V16.76C82.5229 15.612 81.9629 15.024 79.3869 15.024C77.2869 15.024 76.7549 15.388 76.7549 16.284C76.7549 17.012 77.1469 17.32 78.9949 17.544L81.9909 17.908C85.7429 18.328 87.1429 19.588 87.1429 21.912C87.1429 24.544 84.5389 26.28 80.1989 26.28ZM98.7215 26H95.2495C91.9735 26 89.9855 24.46 89.9855 20.932V15.444H87.7735V11.972H89.9855V9.256H94.1855V11.972H98.7215V15.444H94.1855V20.456C94.1855 21.856 94.7175 22.22 96.2015 22.22H98.7215V26ZM104.495 10.544H100.295V7.24H104.495V10.544ZM104.495 26H100.295V11.972H104.495V26ZM122.065 26H106.693V7.24H110.893V22.22H122.065V26ZM128.067 26.28C125.043 26.28 123.223 24.88 123.223 22.528C123.223 20.456 124.763 19.168 127.759 18.86L133.779 18.244V17.712C133.779 15.892 132.967 15.388 130.727 15.388C128.599 15.388 127.731 15.948 127.731 17.544V17.656H123.503V17.572C123.503 14.1 126.415 11.692 131.035 11.692C135.711 11.692 137.923 14.1 137.923 17.768V26H134.003V22.78H133.779C133.135 24.964 131.175 26.28 128.067 26.28ZM127.451 22.248C127.451 23.004 128.039 23.312 129.271 23.312C132.127 23.312 133.667 22.64 133.779 20.652L128.907 21.212C127.899 21.296 127.451 21.576 127.451 22.248ZM144.252 26H140.052V11.972H143.944V15.696H144.196C144.588 13.428 146.072 11.692 148.9 11.692C152.036 11.692 153.324 13.848 153.324 16.592V18.916H149.124V17.46C149.124 15.92 148.508 15.248 146.8 15.248C144.924 15.248 144.252 16.116 144.252 17.88V26ZM159.045 10.544H154.845V7.24H159.045V10.544ZM159.045 26H154.845V11.972H159.045V26ZM168.328 26.28C163.596 26.28 160.992 24.432 160.992 21.184V21.1H165.192V21.352C165.192 22.612 165.976 22.948 168.356 22.948C170.596 22.948 171.128 22.584 171.128 21.744C171.128 20.96 170.708 20.736 169.056 20.512L165.108 20.036C162.308 19.728 160.74 18.468 160.74 16.116C160.74 13.652 162.84 11.692 167.656 11.692C172.248 11.692 174.852 13.428 174.852 16.844V16.928H170.652V16.76C170.652 15.612 170.092 15.024 167.516 15.024C165.416 15.024 164.884 15.388 164.884 16.284C164.884 17.012 165.276 17.32 167.124 17.544L170.12 17.908C173.872 18.328 175.272 19.588 175.272 21.912C175.272 24.544 172.668 26.28 168.328 26.28Z" fill="white"/>
<defs>
<clipPath id="clip0_1_28">
<rect width="29.2683" height="30" fill="white" transform="translate(0 2)"/>
</clipPath>
</defs>
</svg>
