<svg width="353" height="216" viewBox="0 0 353 216" fill="none" xmlns="http://www.w3.org/2000/svg">
<path d="M3.77429 232.076C11.7922 230.436 18.0875 226.161 25.3682 222.61C33.2064 218.786 40.6582 214.116 47.9217 209.304C55.5891 204.225 63.3043 199.229 70.868 193.992C78.3103 188.84 84.031 181.279 90.1934 174.754C98.6047 165.848 108.995 151.605 108.995 138.633C108.995 127.547 103.59 122.98 93.1162 119.613C86.721 117.558 76.2767 123.368 74.6196 129.996C71.6747 141.776 76.6024 154.072 87.0088 160.576C94.0606 164.984 102.537 167.123 110.74 167.862C123.879 169.044 133.527 167.119 145.552 161.754C175.681 148.312 202.636 130.478 223.639 104.694C235.397 90.2597 249.118 72.7277 249.552 53.2177C249.779 42.9785 240.316 34.9829 230.663 34.9829C221.502 34.9829 213.431 38.2748 213.431 47.9829C213.431 53.7535 213.953 56.8425 217.357 61.6808C222.191 68.5493 233.249 72.7753 241.089 74.8552C259.352 79.7007 284.419 75.5243 299.458 64.0365C313.474 53.3298 323.284 38.4656 332.35 23.5971C339.553 11.7844 349.276 -1.79865 349.276 -16.0571" stroke="#B7EB38" stroke-width="6" stroke-linecap="round"/>
</svg>
